<svg xmlns="http://www.w3.org/2000/svg" width="116" height="38" viewBox="0 0 116 38">
  <path fill="#EA1B0A" fill-rule="evenodd" d="M109.808024,31.7133212 C109.312642,33.0163758 108.364255,33.2006182 107.135127,33.2006182 C104.911321,33.2006182 103.234024,32.6713818 102.416448,32.0166303 C102.246945,31.8816727 102.037139,31.5924121 102.179467,31.1684242 C103.015467,28.6767758 106.188812,19.7044 106.188812,17.7661697 C106.188812,16.704703 105.874909,15.9069333 104.815285,15.9069333 C98.3923636,15.9069333 86.592097,29.6120364 84.4007636,32.0617697 C83.6838303,32.8627636 82.6334182,33.0318061 81.405903,33.0318061 C79.8872848,33.0318061 78.2694061,32.2257455 78.1155636,32.1458303 C77.6356121,31.8980242 77.6125818,31.623503 77.7549091,31.0447515 L78.1579394,29.404303 C78.8962909,26.4036848 82.7197818,15.3014667 85.3705697,9.2845697 C85.4829576,9.03054545 85.5930424,8.81912727 86.1685697,8.72930909 C86.4359515,8.68716364 87.3129455,8.48334545 88.5344727,8.48334545 C89.4301212,8.48334545 91.1707515,8.54690909 92.0436,9.01488485 C92.0436,9.01488485 92.0507394,9.00175758 92.0507394,10.4662545 C92.0507394,11.098897 92.1198303,13.249697 94.1441939,13.249697 C97.5602788,13.249697 103.761188,7.38687273 109.244242,7.38687273 C114.064485,7.38687273 115.151515,10.3612364 115.151515,12.6598909 C115.151515,16.5188485 110.561115,29.7308727 109.808024,31.7133212 Z M45.8807394,20.8416364 C45.0417455,22.9109091 42.8421212,23.2462303 41.2935636,23.2462303 C38.970497,23.2462303 38.1720364,22.4118424 38.1720364,21.0952 C38.1720364,20.0763394 39.0292242,18.3172848 39.142303,18.0581939 C40.1883394,15.6614303 42.0604727,15.4009576 43.9084242,15.4009576 C45.4754061,15.4009576 46.9458909,16.0524848 46.9458909,17.510303 C46.9458909,18.3110667 46.012703,20.5159879 45.8807394,20.8416364 Z M25.8135152,8.73621818 C21.9308364,8.73621818 15.1092606,14.6748121 14.4252606,15.3585818 C13.9190545,15.8650182 14.2976727,15.8224121 14.9736121,15.8224121 L23.7048606,15.8224121 C26.7982909,15.8224121 27.0790303,15.3021576 27.0790303,12.4482424 C27.0790303,10.9224848 27.0069455,8.73621818 25.8135152,8.73621818 Z M26.6992606,22.2761939 L23.1143636,22.2761939 C19.5315394,22.2761939 12.3163758,22.0652364 12.3163758,22.0652364 C11.7371636,22.0537212 11.3039636,21.9385697 11.3039636,22.2761939 C11.3039636,24.7139515 14.0620727,28.3923515 18.2634909,28.3923515 C21.5724848,28.3923515 23.7048606,26.3253818 24.1686909,25.8359879 C24.1686909,25.8359879 27.9705333,25.3977212 30.4110545,25.3977212 C32.781103,25.3977212 36.2741091,25.7768 36.2741091,27.1266061 C36.2741091,29.7596606 27.7188121,33.9177818 20.5411879,33.9177818 C9.73444848,33.9177818 0,28.046897 0,20.9685333 C0,9.10792727 22.8912,0.174242424 29.5676848,0.174242424 C35.5804364,0.174242424 36.4007758,9.75024242 36.4007758,13.249697 C36.4007758,20.7257939 31.8016242,22.2761939 26.6992606,22.2761939 Z M62.5095394,13.8823394 C60.4547758,16.7272727 59.0929939,23.8408727 59.0929939,25.8194061 C59.0929939,27.1703636 60.0319394,27.0844606 61.2864,27.0844606 C62.0162303,27.0844606 63.1942303,27.1026545 63.8593455,26.409903 C65.6644606,24.5294788 67.222,16.008497 67.222,14.4700727 C67.222,13.3761333 67.1434667,12.9965939 65.0829455,12.9965939 C64.2690545,12.9965939 63.0581212,13.1234909 62.5095394,13.8823394 Z M74.4274909,24.9755758 C70.1203636,33.2568121 64.3660121,33.2006348 57.8693939,33.2006348 C54.6951273,33.2006348 47.6199879,33.2374667 47.6199879,27.2954182 C47.6199879,24.6379515 49.9363758,19.7665818 51.8382182,15.1480848 C52.6470424,13.1838303 56.0926061,6.58541818 67.8242424,6.58541818 C72.6633697,6.58541818 78.6636848,7.34472727 78.6636848,12.6168242 C78.6636848,15.8643273 75.4578667,22.9945091 74.4274909,24.9755758 Z" transform="translate(0 2)"/>
</svg>
